<svg width="236" height="48" viewBox="0 0 236 48" fill="none" xmlns="http://www.w3.org/2000/svg">
<path d="M55.5364 1.02335C56.6594 0.343837 57.9116 -1.40707e-05 59.2932 -1.40707e-05V-0.0163879C61.0545 -0.0163879 62.4037 0.401146 63.3328 1.2444C64.2619 2.08765 64.7305 3.16833 64.7305 4.49461C64.7305 5.95189 64.165 7.04894 63.05 7.77757C61.9351 8.50621 60.4647 8.87462 58.6549 8.87462C56.9987 8.87462 55.6818 8.39978 54.6961 7.4501C53.7105 6.50041 53.3307 5.32149 53.5408 3.90515C53.7509 2.66893 54.4214 1.71106 55.5364 1.02335Z" fill="#004489"/>
<path d="M37.342 7.10626C31.7269 2.44789 24.9565 0.122801 17.0389 0.122801C14.6151 0.122801 12.2318 0.36841 9.90496 0.859626C7.65087 1.34265 6.51978 2.54613 6.51978 4.45369V4.51919C6.51978 5.73904 7.10956 6.71328 8.28912 7.45011C9.07281 7.9577 9.9292 8.21149 10.8664 8.21149C11.2542 8.21149 11.6662 8.17056 12.0783 8.08869C13.7184 7.76121 15.3746 7.59747 17.047 7.59747C22.4924 7.59747 27.1379 9.18574 30.9836 12.3541C34.8374 15.547 36.7603 19.4112 36.7603 23.9468C36.7603 28.4823 34.8374 32.3466 30.9836 35.5395C27.1379 38.7324 22.4843 40.3288 17.047 40.3288C15.3827 40.3288 13.7264 40.1569 12.0783 39.8131C11.6582 39.7312 11.2542 39.6903 10.8664 39.6903C9.93728 39.6903 9.07281 39.9441 8.28912 40.4516C7.10956 41.2048 6.51978 42.1791 6.51978 43.3826V43.4726C6.51978 45.3638 7.65087 46.5509 9.90496 47.0421C12.2318 47.5333 14.6151 47.7708 17.0389 47.7708C24.9565 47.7708 31.7269 45.4457 37.342 40.7873C42.957 36.1289 45.7686 30.5209 45.7686 23.9468C45.7686 17.3727 42.957 11.7646 37.342 7.10626Z" fill="#004489"/>
<path d="M191.503 40.7709C191.131 40.772 190.6 40.862 189.91 41.0329C189.215 41.213 188.528 41.2949 187.833 41.2949C186.29 41.2949 185.192 40.7791 184.553 39.7394C183.915 38.6996 183.592 37.1195 183.592 34.9991V23.3327H190.782C193.02 23.3327 194.143 22.293 194.143 20.2135C194.143 19.1983 193.82 18.4206 193.182 17.8966C192.544 17.3645 191.639 17.1189 190.467 17.168H183.592C183.592 16.4148 183.616 15.3669 183.673 14.016C183.729 12.6652 183.753 11.7728 183.753 11.3307C183.753 9.12023 182.558 8.015 180.158 8.015C177.12 8.015 175.545 9.47227 175.44 12.3868L175.278 17.2253H171.198C170.075 17.2253 169.17 17.5037 168.484 18.0522C167.797 18.6007 167.442 19.3703 167.442 20.3363C167.442 22.3667 168.589 23.3819 170.875 23.3819H175.27C175.327 24.8883 175.311 27.0824 175.23 29.9805C175.149 32.8787 175.109 34.8518 175.109 35.9161C175.109 43.8246 179.051 47.7871 186.937 47.7871C189.498 47.7871 191.493 47.4515 192.931 46.7965C194.103 46.2234 194.693 45.2246 194.693 43.8165C194.693 43.0223 194.402 42.3183 193.812 41.696C193.224 41.0759 192.46 40.7729 191.503 40.7709Z" fill="#004489"/>
<path d="M191.503 40.7709L191.493 40.7709H191.509L191.503 40.7709Z" fill="#004489"/>
<path d="M85.5506 18.2241C87.5542 17.1189 89.6144 16.5703 91.7474 16.5703L91.7312 16.5622C94.5508 16.5622 95.9647 17.7083 95.9647 20.0089C95.9647 20.9831 95.6577 21.8018 95.0437 22.4649C94.4377 23.1281 93.5409 23.4556 92.3695 23.4556H91.0121C88.2895 23.4556 86.003 24.3971 84.1367 26.2719C82.2704 28.1467 81.3413 30.701 81.3413 33.9266C81.3413 34.5898 81.3656 36.178 81.4221 38.6996C81.4787 41.2212 81.4787 43.1861 81.4221 44.6024C81.3656 46.6409 79.879 47.6561 76.9462 47.6561C75.5082 47.6561 74.4255 47.3614 73.7065 46.7637C72.9874 46.1661 72.6481 45.1182 72.7047 43.6118C72.8663 33.4027 72.947 27.9666 72.947 27.3034C72.947 26.5502 72.9309 25.3959 72.9066 23.824C72.8824 22.2603 72.8663 21.0732 72.8663 20.279C72.8178 19.1247 73.1733 18.265 73.9489 17.692C74.7245 17.1189 75.8071 16.8323 77.1886 16.8323C79.1115 16.8323 80.2264 17.6346 80.5496 19.2229L80.8727 22.8661C81.9958 20.8767 83.555 19.3293 85.5506 18.2241Z" fill="#004489"/>
<path d="M55.8999 17.5692C56.724 17.037 57.7015 16.775 58.8165 16.775H58.8246C60.2707 16.775 61.3857 17.0698 62.1855 17.6674C62.9773 18.265 63.3812 19.3212 63.3812 20.8194V44.1521C63.4297 45.3474 63.0742 46.2398 62.2986 46.8374C61.523 47.4269 60.3919 47.7298 58.8973 47.7298C57.6208 47.7298 56.5785 47.4678 55.7787 46.9357C54.9869 46.4117 54.583 45.634 54.583 44.6188V20.0907C54.6314 18.9364 55.0758 18.1013 55.8999 17.5692Z" fill="#004489"/>
<path fill-rule="evenodd" clip-rule="evenodd" d="M126.803 20.2872C123.684 17.8147 119.863 16.5703 115.331 16.5703C110.16 16.5703 105.805 18.1913 102.258 21.4416C98.7116 24.6918 96.9422 28.6542 96.9422 33.3454C97.0473 37.3651 98.8247 40.8037 102.258 43.6527C105.692 46.5018 109.893 47.9263 114.846 47.9263C120.121 47.9263 124.412 47.0421 127.716 45.2737C129.316 44.3895 130.115 43.3744 130.115 42.2282C130.115 41.344 129.744 40.5499 129.001 39.8376C128.257 39.1335 127.401 38.7733 126.439 38.7733C125.535 38.7733 124.492 39.0598 123.321 39.6329C120.921 40.8282 118.336 41.4259 115.565 41.4259C112.794 41.4259 110.653 40.7218 108.811 39.3054C106.969 37.8891 105.975 36.1699 105.813 34.1313C108.156 34.1313 110.798 34.1231 113.723 34.0986C116.656 34.074 118.974 34.0658 120.679 34.0658C122.384 34.0658 123.903 34.0412 125.236 34.0003C127.845 33.9594 129.542 33.55 130.309 32.7723C131.085 31.9945 131.473 30.66 131.473 28.7607C131.473 25.576 129.913 22.7515 126.795 20.2708L126.803 20.2872ZM122.206 29.2355C119.225 29.4156 113.787 29.4975 105.902 29.4975C106.169 27.6391 107.195 26.0099 108.98 24.5935C110.766 23.1772 112.939 22.4731 115.492 22.4731C117.568 22.4731 119.37 23.0626 120.889 24.2333C122.408 25.404 123.167 26.8777 123.167 28.6379C123.167 28.949 122.844 29.1455 122.206 29.2355Z" fill="#004489"/>
<path d="M160.097 40.1078C161.697 39.4446 162.764 39.1171 163.297 39.1171V39.109C164.258 39.109 165.082 39.4937 165.777 40.2715C166.472 41.0493 166.819 41.8761 166.819 42.7603C166.819 43.7837 166.31 44.5778 165.3 45.1509C162.319 47.0503 158.562 48 154.03 48C148.278 48 143.786 46.469 140.562 43.4235C137.338 40.3697 135.722 36.9885 135.722 33.2799C135.779 28.908 137.573 25.0274 141.119 21.6462C144.666 18.265 149.182 16.5703 154.668 16.5703C158.344 16.5703 161.544 17.2744 164.258 18.6907C165.43 19.3539 166.02 20.2381 166.02 21.3433C166.02 22.1784 165.68 22.9643 165.018 23.693C164.347 24.4216 163.483 24.79 162.416 24.79C161.616 24.79 160.477 24.4871 158.983 23.8649C157.649 23.3819 156.106 23.1362 154.345 23.1362C151.517 23.1362 149.158 24.1269 147.268 26.1163C145.377 28.1057 144.432 30.2753 144.432 32.6167C144.432 35.1301 145.345 37.2341 147.187 38.9125C149.029 40.5908 151.332 41.434 154.103 41.434C156.236 41.434 158.231 40.992 160.097 40.1078Z" fill="#004489"/>
<path fill-rule="evenodd" clip-rule="evenodd" d="M220.215 16.906C225.006 17.4791 228.674 19.2475 231.203 22.2111L231.211 22.203C233.739 25.1666 235.008 28.5233 235.008 32.2811C235.008 36.7921 233.166 40.5417 229.49 43.5217C225.806 46.51 221.176 48 215.577 48C210.625 48 206.359 46.6082 202.788 43.8246C199.217 41.0411 197.432 37.5043 197.432 33.2144C197.432 28.2204 199.257 24.2006 202.909 21.1468C206.561 18.0931 211.53 16.5458 217.815 16.5049C218.833 16.5049 219.625 16.644 220.215 16.906ZM215.416 41.6387C218.405 41.6387 220.958 40.7464 223.091 38.9534L223.083 38.9452C225.216 37.1605 226.282 34.8518 226.282 32.0191C226.282 29.5057 225.394 27.3771 223.608 25.6578C221.823 23.9386 219.358 23.0053 216.216 22.8743C213.129 23.0053 210.673 23.9877 208.864 25.8216C207.054 27.6555 206.149 30.1197 206.149 33.2144C206.149 35.6459 207.094 37.6599 208.985 39.2482C210.875 40.8446 213.016 41.6387 215.416 41.6387Z" fill="#004489"/>
<path d="M25.0456 13.8196C24.7871 13.6886 24.6013 13.6886 24.3185 13.8196C23.4944 14.1962 22.5976 14.409 21.7493 14.7119C20.9172 15.0067 20.1092 15.3833 19.3256 15.8008C17.8148 16.6031 16.4251 17.6265 15.1405 18.7563C12.6925 20.9176 10.6646 23.5866 9.10536 26.4766C6.71391 24.217 3.26409 21.3188 0.202068 23.9468C-0.0968625 24.2006 -0.0322288 24.5608 0.177831 24.79C0.193989 24.831 0.218227 24.8719 0.242464 24.9047C1.09078 26.1491 2.58544 26.8613 3.63573 27.9175C4.73451 29.0227 5.71209 30.3408 6.213 31.8308C6.62504 33.0425 7.15827 34.115 8.52366 34.3196C9.80825 34.5161 10.8262 33.2144 11.4079 32.2483C12.1674 30.9876 12.741 29.604 13.452 28.3186C14.2599 26.8532 15.1405 25.4368 16.0858 24.0614C17.9844 21.3024 20.2143 18.7808 22.8239 16.7014C23.244 16.3657 23.6803 16.0464 24.1165 15.7435C24.4963 15.4815 24.9245 15.285 25.2719 14.9739C25.6677 14.6137 25.3365 13.9751 25.0456 13.8032" fill="#D4071C"/>
</svg>
